<svg width="184" height="19" viewBox="0 0 184 19" fill="none" xmlns="http://www.w3.org/2000/svg">
<path d="M8.88281 18.293C13.0312 18.293 15.9258 15.9023 16.3242 12.1289H12.8789C12.5039 14.1328 10.9922 15.3633 8.89453 15.3633C6.1875 15.3633 4.48828 13.1367 4.48828 9.52734C4.48828 5.96484 6.21094 3.72656 8.88281 3.72656C10.9453 3.72656 12.5391 5.08594 12.8672 7.16016H16.3125C16.043 3.375 12.9492 0.796875 8.88281 0.796875C3.98438 0.796875 0.878906 4.08984 0.878906 9.53906C0.878906 15 3.96094 18.293 8.88281 18.293ZM26.1445 0.796875C21.1289 0.796875 17.9883 4.16016 17.9883 9.55078C17.9883 14.9297 21.1289 18.293 26.1445 18.293C31.1484 18.293 34.3008 14.9297 34.3008 9.55078C34.3008 4.16016 31.1484 0.796875 26.1445 0.796875ZM26.1445 3.75C28.9102 3.75 30.6797 6 30.6797 9.55078C30.6797 13.0898 28.9102 15.3281 26.1445 15.3281C23.3672 15.3281 21.5977 13.0898 21.5977 9.55078C21.5977 6 23.3789 3.75 26.1445 3.75ZM54.4922 18V1.08984H50.3906L45.5859 13.0781H45.4922L40.6875 1.08984H36.5859V18H39.7383V6.58594H39.832L44.4258 17.8359H46.6523L51.2461 6.58594H51.3398V18H54.4922ZM57.3047 1.08984V18H60.8438V12.668H64.0078C67.5703 12.668 70.043 10.3477 70.043 6.87891C70.043 3.39844 67.6523 1.08984 64.1836 1.08984H57.3047ZM60.8438 3.89062H63.2461C65.2734 3.89062 66.4453 4.96875 66.4453 6.89062C66.4453 8.82422 65.2617 9.90234 63.2344 9.90234H60.8438V3.89062ZM81.6211 18H85.3828L79.5 1.08984H75.3398L69.4688 18H73.1016L74.3906 13.8984H80.332L81.6211 18ZM77.3203 4.32422H77.4023L79.5703 11.25H75.1523L77.3203 4.32422ZM90.5039 18V6.92578H90.6094L98.5195 18H101.449V1.08984H98.0625V12.1055H97.9688L90.0703 1.08984H87.1172V18H90.5039ZM112.617 18V11.6836L118.512 1.08984H114.715L110.918 8.30859H110.836L107.051 1.08984H103.195L109.078 11.6836V18H112.617Z" fill="black"/>
<path d="M131.168 15.0703H123.773V1.08984H120.234V18H131.168V15.0703ZM140.191 0.796875C135.176 0.796875 132.035 4.16016 132.035 9.55078C132.035 14.9297 135.176 18.293 140.191 18.293C145.195 18.293 148.348 14.9297 148.348 9.55078C148.348 4.16016 145.195 0.796875 140.191 0.796875ZM140.191 3.75C142.957 3.75 144.727 6 144.727 9.55078C144.727 13.0898 142.957 15.3281 140.191 15.3281C137.414 15.3281 135.645 13.0898 135.645 9.55078C135.645 6 137.426 3.75 140.191 3.75ZM165.75 10.8984V8.98828H158.625V11.5664H162.305L162.293 11.8359C162.223 13.9336 160.617 15.3516 158.309 15.3516C155.496 15.3516 153.715 13.1133 153.715 9.44531C153.715 5.84766 155.391 3.72656 158.18 3.72656C160.09 3.72656 161.531 4.78125 162.047 6.55078H165.598C165.094 3.12891 162.117 0.796875 158.168 0.796875C153.199 0.796875 150.105 4.07812 150.105 9.49219C150.105 14.9883 153.199 18.293 158.25 18.293C162.961 18.293 165.75 15.5039 165.75 10.8984ZM175.723 0.796875C170.707 0.796875 167.566 4.16016 167.566 9.55078C167.566 14.9297 170.707 18.293 175.723 18.293C180.727 18.293 183.879 14.9297 183.879 9.55078C183.879 4.16016 180.727 0.796875 175.723 0.796875ZM175.723 3.75C178.488 3.75 180.258 6 180.258 9.55078C180.258 13.0898 178.488 15.3281 175.723 15.3281C172.945 15.3281 171.176 13.0898 171.176 9.55078C171.176 6 172.957 3.75 175.723 3.75Z" fill="#0D6EFD"/>
</svg>
