<svg width="92" height="24" viewBox="0 0 92 24" fill="none"
     xmlns="http://www.w3.org/2000/svg">
    <path d="M51.6191 18V5.31738H49.6504V10.6787H43.1377V5.31738H41.1689V18H43.1377V12.3838H49.6504V18H51.6191ZM59.4326 5.10645C55.7764 5.10645 53.4912 7.62891 53.4912 11.6631C53.4912 15.6973 55.7764 18.2109 59.4326 18.2109C63.0801 18.2109 65.374 15.6973 65.374 11.6631C65.374 7.62891 63.0801 5.10645 59.4326 5.10645ZM59.4326 6.83789C61.8408 6.83789 63.3525 8.70117 63.3525 11.6631C63.3525 14.6162 61.8408 16.4795 59.4326 16.4795C57.0244 16.4795 55.5039 14.6162 55.5039 11.6631C55.5039 8.70117 57.0244 6.83789 59.4326 6.83789ZM80.0869 18V5.31738H77.8018L73.7061 15.3281H73.6357L69.5312 5.31738H67.2549V18H69.0479V8.66602H69.1094L72.9414 17.9033H74.4004L78.2236 8.66602H78.2852V18H80.0869ZM90.4756 16.2949H84.3936V12.3574H90.1504V10.7227H84.3936V7.01367H90.4756V5.31738H82.4248V18H90.4756V16.2949Z"
          fill="#B7BBC0"/>
    <path fill-rule="evenodd" clip-rule="evenodd"
          d="M22 10.7602V17.5967C22 19.4377 20.5076 20.93 18.6667 20.93H17.4444C16.8922 20.93 16.4444 20.4823 16.4444 19.93V19.7078C16.4444 19.1555 16.8922 18.7078 17.4444 18.7078H18.6667C19.2803 18.7078 19.7778 18.2104 19.7778 17.5967V10.7602C19.7778 10.4141 19.6165 10.0878 19.3416 9.87755L12.6749 4.77951C12.2765 4.47486 11.7235 4.47485 11.3251 4.77951L4.65839 9.87755C4.38348 10.0878 4.22222 10.4141 4.22222 10.7602V17.5967C4.22222 18.2104 4.71968 18.7078 5.33333 18.7078H6.55556C7.10784 18.7078 7.55556 19.1555 7.55556 19.7078V19.93C7.55556 20.4823 7.10784 20.93 6.55556 20.93H5.33333C3.49239 20.93 2 19.4377 2 17.5967V10.7602C2 9.72193 2.48377 8.74299 3.3085 8.11231L9.97517 3.01427C11.1704 2.1003 12.8297 2.10031 14.0248 3.01427L20.6915 8.11231C21.5162 8.74299 22 9.72194 22 10.7602ZM11.8889 11.1523H12.1111C13.768 11.1523 15.1111 12.4954 15.1111 14.1523V17.7078C15.1111 19.3647 13.768 20.7078 12.1111 20.7078H11.8889C10.232 20.7078 8.88889 19.3647 8.88889 17.7078V14.1523C8.88889 12.4954 10.232 11.1523 11.8889 11.1523ZM13.1111 14.1523C13.1111 13.6 12.6634 13.1523 12.1111 13.1523H11.8889C11.3366 13.1523 10.8889 13.6 10.8889 14.1523V17.7078C10.8889 18.2601 11.3366 18.7078 11.8889 18.7078H12.1111C12.6634 18.7078 13.1111 18.2601 13.1111 17.7078V14.1523Z"
          fill="#B7BBC0"/>
</svg>
